<svg xmlns="http://www.w3.org/2000/svg" width="1200" height="240" viewBox="0 0 1200 240" role="img" aria-label="Blue wave bottom banner">
  <defs>
    <linearGradient id="waveGrad" x1="0%" y1="0%" x2="100%" y2="0%">
      <stop offset="0%" stop-color="#2D8CFF"/>
      <stop offset="55%" stop-color="#1FB6FF"/>
      <stop offset="100%" stop-color="#00D4FF"/>
    </linearGradient>

    <filter id="softGlow" x="-20%" y="-30%" width="140%" height="180%">
      <feGaussianBlur stdDeviation="8" result="blur"/>
      <feColorMatrix in="blur" type="matrix"
        values="1 0 0 0 0
                0 1 0 0 0
                0 0 1 0 0
                0 0 0 0.45 0" result="glow"/>
      <feMerge>
        <feMergeNode in="glow"/>
        <feMergeNode in="SourceGraphic"/>
      </feMerge>
    </filter>

    <linearGradient id="shineGrad" x1="0%" y1="0%" x2="0%" y2="100%">
      <stop offset="0%" stop-color="#ffffff" stop-opacity="0.45"/>
      <stop offset="100%" stop-color="#ffffff" stop-opacity="0"/>
    </linearGradient>
  </defs>

  <!-- Flip the same wave vertically so it hugs the top edge -->
  <g transform="translate(0 240) scale(1 -1)">
    <path
      d="M0 170 C 140 140, 260 210, 420 178 C 560 150, 680 105, 840 138 C 980 168, 1090 220, 1200 190 L1200 240 L0 240 Z"
      fill="url(#waveGrad)"
      opacity="0.35"
      filter="url(#softGlow)"
    />
    <path
      d="M0 185 C 160 130, 320 235, 500 182 C 680 130, 820 85, 980 135 C 1100 172, 1160 205, 1200 188 L1200 240 L0 240 Z"
      fill="url(#waveGrad)"
      opacity="0.85"
      filter="url(#softGlow)"
    />
    <path
      d="M0 188 C 170 140, 310 222, 500 185 C 700 146, 830 110, 980 150 C 1100 180, 1165 195, 1200 186"
      fill="none"
      stroke="url(#shineGrad)"
      stroke-width="4"
      stroke-linecap="round"
      opacity="0.9"
    />
  </g>
</svg>
